<mxfile host="app.diagrams.net" agent="Mozilla/5.0 (Windows NT 10.0; Win64; x64) AppleWebKit/537.36 (KHTML, like Gecko) Chrome/132.0.0.0 YaBrowser/25.2.0.0 Safari/537.36" version="26.1.1">
  <diagram name="Страница — 1" id="STzQ8aewgTV2EY0n8kZg">
    <mxGraphModel dx="593" dy="1155" grid="0" gridSize="10" guides="1" tooltips="1" connect="1" arrows="1" fold="1" page="0" pageScale="1" pageWidth="827" pageHeight="1169" math="0" shadow="0">
      <root>
        <mxCell id="0" />
        <mxCell id="1" parent="0" />
        <mxCell id="CLzal9uq0jq4ATwJNPA3-1" value="Z1" style="ellipse;whiteSpace=wrap;html=1;aspect=fixed;" vertex="1" parent="1">
          <mxGeometry x="4" y="15" width="50" height="50" as="geometry" />
        </mxCell>
        <mxCell id="CLzal9uq0jq4ATwJNPA3-2" value="Z2" style="ellipse;whiteSpace=wrap;html=1;aspect=fixed;" vertex="1" parent="1">
          <mxGeometry x="98" y="15" width="50" height="50" as="geometry" />
        </mxCell>
        <mxCell id="CLzal9uq0jq4ATwJNPA3-3" value="Z3" style="ellipse;whiteSpace=wrap;html=1;aspect=fixed;" vertex="1" parent="1">
          <mxGeometry x="190" y="15" width="50" height="50" as="geometry" />
        </mxCell>
        <mxCell id="CLzal9uq0jq4ATwJNPA3-4" value="Z4" style="ellipse;whiteSpace=wrap;html=1;aspect=fixed;" vertex="1" parent="1">
          <mxGeometry x="282" y="15" width="50" height="50" as="geometry" />
        </mxCell>
        <mxCell id="CLzal9uq0jq4ATwJNPA3-5" value="Z5" style="ellipse;whiteSpace=wrap;html=1;aspect=fixed;" vertex="1" parent="1">
          <mxGeometry x="369" y="-59" width="50" height="50" as="geometry" />
        </mxCell>
        <mxCell id="CLzal9uq0jq4ATwJNPA3-6" value="Z6" style="ellipse;whiteSpace=wrap;html=1;aspect=fixed;" vertex="1" parent="1">
          <mxGeometry x="463" y="15" width="50" height="50" as="geometry" />
        </mxCell>
        <mxCell id="CLzal9uq0jq4ATwJNPA3-7" value="Z7" style="ellipse;whiteSpace=wrap;html=1;aspect=fixed;" vertex="1" parent="1">
          <mxGeometry x="559" y="15" width="50" height="50" as="geometry" />
        </mxCell>
        <mxCell id="CLzal9uq0jq4ATwJNPA3-8" value="Z8" style="ellipse;whiteSpace=wrap;html=1;aspect=fixed;" vertex="1" parent="1">
          <mxGeometry x="559" y="87" width="50" height="50" as="geometry" />
        </mxCell>
        <mxCell id="CLzal9uq0jq4ATwJNPA3-9" value="Z9&lt;span style=&quot;color: rgba(0, 0, 0, 0); font-family: monospace; font-size: 0px; text-align: start; text-wrap-mode: nowrap;&quot;&gt;%3CmxGraphModel%3E%3Croot%3E%3CmxCell%20id%3D%220%22%2F%3E%3CmxCell%20id%3D%221%22%20parent%3D%220%22%2F%3E%3CmxCell%20id%3D%222%22%20value%3D%22Z1%22%20style%3D%22ellipse%3BwhiteSpace%3Dwrap%3Bhtml%3D1%3Baspect%3Dfixed%3B%22%20vertex%3D%221%22%20parent%3D%221%22%3E%3CmxGeometry%20x%3D%224%22%20y%3D%2215%22%20width%3D%2250%22%20height%3D%2250%22%20as%3D%22geometry%22%2F%3E%3C%2FmxCell%3E%3C%2Froot%3E%3C%2FmxGraphModel%3E&lt;/span&gt;" style="ellipse;whiteSpace=wrap;html=1;aspect=fixed;" vertex="1" parent="1">
          <mxGeometry x="666" y="15" width="50" height="50" as="geometry" />
        </mxCell>
        <mxCell id="CLzal9uq0jq4ATwJNPA3-10" value="Z14" style="ellipse;whiteSpace=wrap;html=1;aspect=fixed;" vertex="1" parent="1">
          <mxGeometry x="1178" y="15" width="50" height="50" as="geometry" />
        </mxCell>
        <mxCell id="CLzal9uq0jq4ATwJNPA3-11" value="Z10" style="ellipse;whiteSpace=wrap;html=1;aspect=fixed;" vertex="1" parent="1">
          <mxGeometry x="775" y="15" width="50" height="50" as="geometry" />
        </mxCell>
        <mxCell id="CLzal9uq0jq4ATwJNPA3-13" value="Z11" style="ellipse;whiteSpace=wrap;html=1;aspect=fixed;" vertex="1" parent="1">
          <mxGeometry x="874" y="15" width="50" height="50" as="geometry" />
        </mxCell>
        <mxCell id="CLzal9uq0jq4ATwJNPA3-14" value="Z12" style="ellipse;whiteSpace=wrap;html=1;aspect=fixed;" vertex="1" parent="1">
          <mxGeometry x="963" y="15" width="50" height="50" as="geometry" />
        </mxCell>
        <mxCell id="CLzal9uq0jq4ATwJNPA3-15" value="Z13" style="ellipse;whiteSpace=wrap;html=1;aspect=fixed;" vertex="1" parent="1">
          <mxGeometry x="1071" y="15" width="50" height="50" as="geometry" />
        </mxCell>
        <mxCell id="CLzal9uq0jq4ATwJNPA3-16" value="" style="endArrow=classic;html=1;rounded=0;fontSize=12;startSize=8;endSize=8;curved=1;exitX=1;exitY=0.5;exitDx=0;exitDy=0;entryX=0;entryY=0.5;entryDx=0;entryDy=0;" edge="1" parent="1" source="CLzal9uq0jq4ATwJNPA3-1" target="CLzal9uq0jq4ATwJNPA3-2">
          <mxGeometry width="50" height="50" relative="1" as="geometry">
            <mxPoint x="169" y="72" as="sourcePoint" />
            <mxPoint x="219" y="22" as="targetPoint" />
          </mxGeometry>
        </mxCell>
        <mxCell id="CLzal9uq0jq4ATwJNPA3-18" value="" style="endArrow=classic;html=1;rounded=0;fontSize=12;startSize=8;endSize=8;curved=1;exitX=1;exitY=0.5;exitDx=0;exitDy=0;entryX=0;entryY=0.5;entryDx=0;entryDy=0;" edge="1" parent="1" source="CLzal9uq0jq4ATwJNPA3-2" target="CLzal9uq0jq4ATwJNPA3-3">
          <mxGeometry width="50" height="50" relative="1" as="geometry">
            <mxPoint x="64" y="50" as="sourcePoint" />
            <mxPoint x="108" y="50" as="targetPoint" />
          </mxGeometry>
        </mxCell>
        <mxCell id="CLzal9uq0jq4ATwJNPA3-22" value="" style="endArrow=classic;html=1;rounded=0;fontSize=12;startSize=8;endSize=8;curved=1;exitX=1;exitY=0.5;exitDx=0;exitDy=0;entryX=0;entryY=0.5;entryDx=0;entryDy=0;" edge="1" parent="1" source="CLzal9uq0jq4ATwJNPA3-3" target="CLzal9uq0jq4ATwJNPA3-4">
          <mxGeometry width="50" height="50" relative="1" as="geometry">
            <mxPoint x="74" y="60" as="sourcePoint" />
            <mxPoint x="118" y="60" as="targetPoint" />
          </mxGeometry>
        </mxCell>
        <mxCell id="CLzal9uq0jq4ATwJNPA3-31" value="" style="endArrow=classic;html=1;rounded=0;fontSize=12;startSize=8;endSize=8;curved=1;exitX=1;exitY=0.5;exitDx=0;exitDy=0;entryX=0;entryY=0.5;entryDx=0;entryDy=0;" edge="1" parent="1" source="CLzal9uq0jq4ATwJNPA3-6" target="CLzal9uq0jq4ATwJNPA3-7">
          <mxGeometry width="50" height="50" relative="1" as="geometry">
            <mxPoint x="434" y="50" as="sourcePoint" />
            <mxPoint x="476" y="50" as="targetPoint" />
          </mxGeometry>
        </mxCell>
        <mxCell id="CLzal9uq0jq4ATwJNPA3-43" value="" style="endArrow=classic;html=1;rounded=0;fontSize=12;startSize=8;endSize=8;curved=1;exitX=1;exitY=0.5;exitDx=0;exitDy=0;entryX=0;entryY=0.5;entryDx=0;entryDy=0;" edge="1" parent="1" source="CLzal9uq0jq4ATwJNPA3-9" target="CLzal9uq0jq4ATwJNPA3-11">
          <mxGeometry width="50" height="50" relative="1" as="geometry">
            <mxPoint x="464" y="80" as="sourcePoint" />
            <mxPoint x="506" y="80" as="targetPoint" />
          </mxGeometry>
        </mxCell>
        <mxCell id="CLzal9uq0jq4ATwJNPA3-46" value="" style="endArrow=classic;html=1;rounded=0;fontSize=12;startSize=8;endSize=8;curved=1;exitX=1;exitY=0.5;exitDx=0;exitDy=0;entryX=0;entryY=0.5;entryDx=0;entryDy=0;" edge="1" parent="1" source="CLzal9uq0jq4ATwJNPA3-11" target="CLzal9uq0jq4ATwJNPA3-13">
          <mxGeometry width="50" height="50" relative="1" as="geometry">
            <mxPoint x="619" y="50" as="sourcePoint" />
            <mxPoint x="661" y="50" as="targetPoint" />
          </mxGeometry>
        </mxCell>
        <mxCell id="CLzal9uq0jq4ATwJNPA3-50" value="" style="endArrow=classic;html=1;rounded=0;fontSize=12;startSize=8;endSize=8;curved=1;exitX=1;exitY=0.5;exitDx=0;exitDy=0;entryX=0;entryY=0.5;entryDx=0;entryDy=0;" edge="1" parent="1" source="CLzal9uq0jq4ATwJNPA3-13" target="CLzal9uq0jq4ATwJNPA3-14">
          <mxGeometry width="50" height="50" relative="1" as="geometry">
            <mxPoint x="895" y="50" as="sourcePoint" />
            <mxPoint x="932" y="50" as="targetPoint" />
          </mxGeometry>
        </mxCell>
        <mxCell id="CLzal9uq0jq4ATwJNPA3-56" value="" style="endArrow=classic;html=1;rounded=0;fontSize=12;startSize=8;endSize=8;curved=1;exitX=1;exitY=0.5;exitDx=0;exitDy=0;entryX=0;entryY=0.5;entryDx=0;entryDy=0;" edge="1" parent="1" source="CLzal9uq0jq4ATwJNPA3-15" target="CLzal9uq0jq4ATwJNPA3-10">
          <mxGeometry width="50" height="50" relative="1" as="geometry">
            <mxPoint x="915" y="70" as="sourcePoint" />
            <mxPoint x="952" y="70" as="targetPoint" />
          </mxGeometry>
        </mxCell>
        <mxCell id="CLzal9uq0jq4ATwJNPA3-74" value="Z15" style="ellipse;whiteSpace=wrap;html=1;aspect=fixed;" vertex="1" parent="1">
          <mxGeometry x="1261" y="15" width="50" height="50" as="geometry" />
        </mxCell>
        <mxCell id="CLzal9uq0jq4ATwJNPA3-75" value="Z16" style="ellipse;whiteSpace=wrap;html=1;aspect=fixed;" vertex="1" parent="1">
          <mxGeometry x="1344" y="15" width="50" height="50" as="geometry" />
        </mxCell>
        <mxCell id="CLzal9uq0jq4ATwJNPA3-102" value="" style="endArrow=classic;html=1;rounded=0;fontSize=12;startSize=8;endSize=8;curved=1;exitX=0.5;exitY=0;exitDx=0;exitDy=0;entryX=0;entryY=0.5;entryDx=0;entryDy=0;" edge="1" parent="1" source="CLzal9uq0jq4ATwJNPA3-3" target="CLzal9uq0jq4ATwJNPA3-5">
          <mxGeometry width="50" height="50" relative="1" as="geometry">
            <mxPoint x="310" y="133" as="sourcePoint" />
            <mxPoint x="360" y="83" as="targetPoint" />
            <Array as="points">
              <mxPoint x="257" y="-63" />
            </Array>
          </mxGeometry>
        </mxCell>
        <mxCell id="CLzal9uq0jq4ATwJNPA3-104" value="" style="endArrow=classic;html=1;rounded=0;fontSize=12;startSize=8;endSize=8;curved=1;exitX=1;exitY=0.5;exitDx=0;exitDy=0;entryX=0;entryY=0.5;entryDx=0;entryDy=0;" edge="1" parent="1" source="CLzal9uq0jq4ATwJNPA3-4" target="CLzal9uq0jq4ATwJNPA3-6">
          <mxGeometry width="50" height="50" relative="1" as="geometry">
            <mxPoint x="250" y="50" as="sourcePoint" />
            <mxPoint x="292" y="50" as="targetPoint" />
          </mxGeometry>
        </mxCell>
        <mxCell id="CLzal9uq0jq4ATwJNPA3-105" value="" style="endArrow=classic;html=1;rounded=0;fontSize=12;startSize=8;endSize=8;curved=1;exitX=1;exitY=0.5;exitDx=0;exitDy=0;entryX=0.5;entryY=0;entryDx=0;entryDy=0;" edge="1" parent="1" source="CLzal9uq0jq4ATwJNPA3-5" target="CLzal9uq0jq4ATwJNPA3-7">
          <mxGeometry width="50" height="50" relative="1" as="geometry">
            <mxPoint x="429" y="-24" as="sourcePoint" />
            <mxPoint x="498" y="25" as="targetPoint" />
            <Array as="points">
              <mxPoint x="547" y="-61" />
            </Array>
          </mxGeometry>
        </mxCell>
        <mxCell id="CLzal9uq0jq4ATwJNPA3-106" value="" style="endArrow=classic;html=1;rounded=0;fontSize=12;startSize=8;endSize=8;curved=1;entryX=0;entryY=0.5;entryDx=0;entryDy=0;" edge="1" parent="1" target="CLzal9uq0jq4ATwJNPA3-8">
          <mxGeometry width="50" height="50" relative="1" as="geometry">
            <mxPoint x="485" y="65" as="sourcePoint" />
            <mxPoint x="569" y="50" as="targetPoint" />
            <Array as="points">
              <mxPoint x="473" y="124" />
            </Array>
          </mxGeometry>
        </mxCell>
        <mxCell id="CLzal9uq0jq4ATwJNPA3-107" value="" style="endArrow=classic;html=1;rounded=0;fontSize=12;startSize=8;endSize=8;curved=1;exitX=1;exitY=0.5;exitDx=0;exitDy=0;entryX=0;entryY=0.5;entryDx=0;entryDy=0;" edge="1" parent="1" source="CLzal9uq0jq4ATwJNPA3-7" target="CLzal9uq0jq4ATwJNPA3-9">
          <mxGeometry width="50" height="50" relative="1" as="geometry">
            <mxPoint x="533" y="60" as="sourcePoint" />
            <mxPoint x="579" y="60" as="targetPoint" />
            <Array as="points">
              <mxPoint x="638" y="38" />
            </Array>
          </mxGeometry>
        </mxCell>
        <mxCell id="CLzal9uq0jq4ATwJNPA3-108" value="" style="endArrow=classic;html=1;rounded=0;fontSize=12;startSize=8;endSize=8;curved=1;exitX=1;exitY=1;exitDx=0;exitDy=0;entryX=0;entryY=1;entryDx=0;entryDy=0;" edge="1" parent="1" source="CLzal9uq0jq4ATwJNPA3-6" target="CLzal9uq0jq4ATwJNPA3-9">
          <mxGeometry width="50" height="50" relative="1" as="geometry">
            <mxPoint x="619" y="50" as="sourcePoint" />
            <mxPoint x="676" y="50" as="targetPoint" />
            <Array as="points">
              <mxPoint x="587" y="96" />
            </Array>
          </mxGeometry>
        </mxCell>
        <mxCell id="CLzal9uq0jq4ATwJNPA3-109" value="" style="endArrow=classic;html=1;rounded=0;fontSize=12;startSize=8;endSize=8;curved=1;exitX=0.5;exitY=1;exitDx=0;exitDy=0;entryX=0.5;entryY=1;entryDx=0;entryDy=0;" edge="1" parent="1" source="CLzal9uq0jq4ATwJNPA3-15" target="CLzal9uq0jq4ATwJNPA3-74">
          <mxGeometry width="50" height="50" relative="1" as="geometry">
            <mxPoint x="934" y="50" as="sourcePoint" />
            <mxPoint x="973" y="50" as="targetPoint" />
            <Array as="points">
              <mxPoint x="1184" y="116" />
            </Array>
          </mxGeometry>
        </mxCell>
        <mxCell id="CLzal9uq0jq4ATwJNPA3-110" value="" style="endArrow=classic;html=1;rounded=0;fontSize=12;startSize=8;endSize=8;curved=1;exitX=1;exitY=0.5;exitDx=0;exitDy=0;entryX=0.5;entryY=0;entryDx=0;entryDy=0;" edge="1" parent="1" source="CLzal9uq0jq4ATwJNPA3-5" target="CLzal9uq0jq4ATwJNPA3-10">
          <mxGeometry width="50" height="50" relative="1" as="geometry">
            <mxPoint x="429" y="-24" as="sourcePoint" />
            <mxPoint x="594" y="25" as="targetPoint" />
            <Array as="points">
              <mxPoint x="757" y="-98" />
            </Array>
          </mxGeometry>
        </mxCell>
        <mxCell id="CLzal9uq0jq4ATwJNPA3-111" value="" style="endArrow=classic;html=1;rounded=0;fontSize=12;startSize=8;endSize=8;curved=1;exitX=1;exitY=0.5;exitDx=0;exitDy=0;entryX=0;entryY=0.5;entryDx=0;entryDy=0;" edge="1" parent="1" source="CLzal9uq0jq4ATwJNPA3-14" target="CLzal9uq0jq4ATwJNPA3-15">
          <mxGeometry width="50" height="50" relative="1" as="geometry">
            <mxPoint x="934" y="50" as="sourcePoint" />
            <mxPoint x="973" y="50" as="targetPoint" />
          </mxGeometry>
        </mxCell>
        <mxCell id="CLzal9uq0jq4ATwJNPA3-112" value="" style="endArrow=classic;html=1;rounded=0;fontSize=12;startSize=8;endSize=8;curved=1;exitX=1;exitY=0.5;exitDx=0;exitDy=0;entryX=0;entryY=0.5;entryDx=0;entryDy=0;" edge="1" parent="1" source="CLzal9uq0jq4ATwJNPA3-10" target="CLzal9uq0jq4ATwJNPA3-74">
          <mxGeometry width="50" height="50" relative="1" as="geometry">
            <mxPoint x="1131" y="50" as="sourcePoint" />
            <mxPoint x="1188" y="50" as="targetPoint" />
          </mxGeometry>
        </mxCell>
        <mxCell id="CLzal9uq0jq4ATwJNPA3-113" value="" style="endArrow=classic;html=1;rounded=0;fontSize=12;startSize=8;endSize=8;curved=1;exitX=1;exitY=0.5;exitDx=0;exitDy=0;entryX=0;entryY=0.5;entryDx=0;entryDy=0;" edge="1" parent="1" source="CLzal9uq0jq4ATwJNPA3-74" target="CLzal9uq0jq4ATwJNPA3-75">
          <mxGeometry width="50" height="50" relative="1" as="geometry">
            <mxPoint x="1131" y="50" as="sourcePoint" />
            <mxPoint x="1188" y="50" as="targetPoint" />
          </mxGeometry>
        </mxCell>
      </root>
    </mxGraphModel>
  </diagram>
</mxfile>
